<svg viewBox="0 0 750 165" xmlns="http://www.w3.org/2000/svg" width="750" height="165">
  <defs>
    <radialGradient id="glow" cx="50%" cy="50%" r="50%">
      <stop offset="0%" stop-color="#FFD43B" stop-opacity="0.3"/>
      <stop offset="100%" stop-color="#FFD43B" stop-opacity="0"/>
    </radialGradient>
  </defs>
  <g transform="translate(5, 30)">
    <polygon points="0,110 30,95 30,115 0,130" fill="#2a3a4a"/>
    <polygon points="30,95 60,110 60,130 30,115" fill="#3a4a5a"/>
    <polygon points="0,95 30,80 60,95 30,110" fill="#b8c8d8"/>

    <polygon points="30,80 60,65 60,85 30,100" fill="#2a3a4a"/>
    <polygon points="60,65 90,80 90,100 60,85" fill="#3a4a5a"/>
    <polygon points="30,65 60,50 90,65 60,80" fill="#ccd8e8"/>

    <polygon points="60,50 90,35 90,55 60,70" fill="#2a3a4a"/>
    <polygon points="90,35 120,50 120,70 90,55" fill="#3a4a5a"/>
    <polygon points="60,35 90,20 120,35 90,50" fill="#dde8f4"/>

    <polygon points="90,20 120,5 120,25 90,40" fill="#2a3a4a"/>
    <polygon points="120,5 150,20 150,40 120,25" fill="#3a4a5a"/>
    <polygon points="90,5 120,-10 150,5 120,20" fill="#eef4ff"/>

    <circle cx="120" cy="-8" r="18" fill="url(#glow)"/>
    <circle cx="120" cy="-8" r="5" fill="#FFD43B"/>
  </g>
  <text x="470" y="110" dominant-baseline="middle" text-anchor="middle" fill="#333333" font-size="100" font-family="ui-sans-serif, system-ui, -apple-system, BlinkMacSystemFont, 'Segoe UI', sans-serif"
 letter-spacing="-1" font-weight="600">Spring 2026</text>
</svg>
